<?xml version="1.0" encoding="UTF-8" standalone="no"?>
<svg width="100%" height="100%" viewBox="0 0 67845 67845" version="1.1" xmlns="http://www.w3.org/2000/svg" xmlns:xlink="http://www.w3.org/1999/xlink" xml:space="preserve" style="fill-rule:evenodd;clip-rule:evenodd;stroke-linecap:round;stroke-linejoin:round;stroke-miterlimit:1.5;">
    <g transform="matrix(5.55556,0,0,5.55556,0,0)">
        <g transform="matrix(5.55556,0,0,5.55556,0,0)">
            <g transform="matrix(1.33333,0,0,1.33333,0,0)">
                <rect x="0" y="-0" width="1648" height="1648" style="fill:none;"/>
            </g>
            <g transform="matrix(4.05182e-17,0.661712,-0.661712,4.05182e-17,1711.9,49.8197)">
                <circle cx="915.53" cy="926.747" r="206.882" style="fill:white;stroke:black;stroke-width:12.24px;"/>
            </g>
            <g transform="matrix(4.05211e-17,0.66176,-0.66176,4.05211e-17,1711.94,49.6809)">
                <path d="M915.53,1133.63C888.368,1133.63 588.171,1151.03 212.807,1172.99L215.762,680.674C589.746,702.554 888.44,719.866 915.53,719.866C1013.71,719.866 2279.51,798.885 2333.66,798.885C2373.6,798.885 2756.37,821.832 3003.14,836.268L3003.14,1017.23C2756.37,1031.66 2373.6,1054.61 2333.66,1054.61C2279.51,1054.61 1013.71,1133.63 915.53,1133.63Z" style="fill:none;stroke:black;stroke-width:12.24px;"/>
            </g>
            <g transform="matrix(5.46289e-17,0.892158,-1.21553,7.44299e-17,2163.49,566.763)">
                <path d="M1542.53,1647.99L1542.53,1648L1247.17,1648C1253.32,1596.33 1304.39,1551.43 1289.78,1565.12C1347.77,1510.79 1347.76,1422.58 1289.76,1368.25C1306.15,1383.6 1246.25,1330.58 1246.25,1269.79C1246.25,1211.33 1304.39,1157.65 1289.78,1171.35C1347.77,1117.01 1347.76,1028.8 1289.76,974.474L1289.76,974.472C1306.15,989.819 1246.25,936.801 1246.25,876.011C1246.25,817.547 1304.39,763.872 1289.78,777.566C1347.77,723.234 1347.76,635.019 1289.76,580.695L1289.76,580.693C1306.15,596.04 1246.25,543.022 1246.25,482.232C1246.25,423.769 1304.39,370.093 1289.78,383.787C1346.81,330.35 1347.75,244.137 1292.58,189.628C1292.25,189.293 1291.67,188.723 1290.81,187.903C1282.47,179.187 1251.96,144.288 1247.17,104.022L1648,104.022L1648,1647.99L1542.53,1647.99ZM1292.58,189.628C1293.39,190.46 1292.67,189.841 1290.88,187.983C1291.45,188.528 1292.02,189.077 1292.58,189.628ZM1290.88,187.983C1290.51,187.626 1290.14,187.27 1289.76,186.916L1289.76,186.914C1290.15,187.276 1290.5,187.606 1290.81,187.903C1290.83,187.93 1290.86,187.957 1290.88,187.983Z" style="fill:rgb(236,3,140);stroke:black;stroke-width:7.6px;"/>
            </g>
            <g transform="matrix(2.77738e-16,4.5358,-4.5358,2.77738e-16,5302.2,-3053.99)">
                <path d="M1006.08,1133.63L915.53,1133.63C801.349,1133.63 708.648,1040.93 708.648,926.747C708.648,812.566 801.349,719.866 915.53,719.866L1006.08,719.866L1006.08,798.886L915.529,798.888C844.961,798.888 787.669,856.18 787.669,926.748C787.669,997.316 844.961,1054.61 915.529,1054.61L1006.08,1054.61L1006.08,1133.63Z" style="fill:rgb(0,174,239);stroke:black;stroke-width:1.79px;"/>
            </g>
            <g transform="matrix(1.06074e-16,1.73232,-1.73232,1.06074e-16,2704.09,-435.067)">
                <circle cx="915.53" cy="926.747" r="206.882" style="fill:rgb(255,242,0);stroke:black;stroke-width:4.68px;"/>
            </g>
            <g transform="matrix(2.50401e-17,0.408935,-0.408935,2.50401e-17,1477.65,1219.62)">
                <circle cx="915.53" cy="926.747" r="206.882"/>
            </g>
            <g transform="matrix(2.08167e-17,0.0818532,-0.0818532,2.08167e-17,1098.66,655.634)">
                <path d="M1672.49,394.974C1672.49,-393.152 1032.63,-1033.01 244.508,-1033.01C-242.581,-1033.01 -638.036,-637.555 -638.036,-150.466C-638.036,150.571 -393.632,394.974 -92.595,394.974C93.457,394.974 244.508,243.924 244.508,57.872C244.508,-57.113 151.155,-150.466 36.17,-150.466C-34.897,-150.466 -92.595,-92.769 -92.595,-21.702C-92.595,22.216 -56.939,57.872 -13.021,57.872C14.128,57.872 36.17,35.83 36.17,8.681C36.17,-8.088 22.556,-21.702 5.787,-21.702C-4.593,-21.702 -13.021,-13.274 -13.021,-2.894C-13.021,3.494 -7.835,8.681 -1.447,8.681C2.546,8.681 5.787,5.439 5.787,1.447C5.787,-0.949 3.842,-2.894 1.447,-2.894C-0.15,-2.894 -1.447,-1.597 -1.447,0C-1.447,0.799 -0.799,1.447 0,1.447C0.799,1.447 1.447,0.799 1.447,0" style="fill:none;stroke:rgb(8,6,5);stroke-width:98.96px;"/>
            </g>
        </g>
    </g>
</svg>
